
<svg width="63" height="63" viewBox="0 0 63 63" fill="none" xmlns="http://www.w3.org/2000/svg">
<g id="Group 11">
<rect id="Rectangle 21" width="63" height="63" rx="16" fill="#F2C94C" fill-opacity="0.37"/>
<path id="JN" d="M26.4084 22.235V35.762C26.4084 37.436 25.8954 38.759 24.8694 39.731C23.8614 40.703 22.5294 41.189 20.8734 41.189C19.2174 41.189 17.8764 40.703 16.8504 39.731C15.8424 38.759 15.3384 37.436 15.3384 35.762H18.4434C18.4614 36.59 18.6684 37.247 19.0644 37.733C19.4784 38.219 20.0814 38.462 20.8734 38.462C21.6654 38.462 22.2684 38.219 22.6824 37.733C23.0964 37.229 23.3034 36.572 23.3034 35.762V22.235H26.4084ZM46.8326 41H43.7546L34.4936 26.987V41H31.4156V22.208H34.4936L43.7546 36.194V22.208H46.8326V41Z" fill="#F2994A"/>
</g>
</svg>
